/* XPM */
static char *_165348c5030452fb44c5985e1f6641dJx7VSkrt4dytLc0X[] = {
/* columns rows colors chars-per-pixel */
"18 18 13 1 ",
"  c None",
". c #F3F4E7",
"X c #78A158",
"o c #67835C",
"O c #A4C263",
"+ c #8DB15D",
"@ c #566560",
"# c #8A4A70",
"$ c #A35B70",
"% c #D99A9A",
"& c #BD757E",
"* c #713970",
"= c white",
/* pixels */
"   ...            ",
"                  ",
"                  ",
"          ...     ",
"         .XXo.    ",
"        .XOO+o.   ",
"       .XO++@@.   ",
"      .#o++@#.    ",
"     .$%%@@@$#.   ",
"O   .$%%%&&&$$*.  ",
"O   .$%%&&&&$$*.  ",
"O   .#%&&&&&$$*.  ",
"    .#&&&&&$$$*.  ",
"     .#&&&$$$*.   ",
"      .******.    ",
"       ......     ",
"                  ",
"                  "
};
