/* XPM */
static char *_338d360fd5447fcc2340c45244c6455yNuQ7SslZDcN3oCX[] = {
/* columns rows colors chars-per-pixel */
"128 128 5 1 ",
"  c #79A863",
". c #9BB94E",
"X c #BFBA5B",
"o c #679175",
"O c white",
/* pixels */
"    ...........................................                     ...........................................                 ",
"       ...      ...................................                    ...      ...................................             ",
"                ..................XXXX.................                         ..................XXXX.................         ",
"            XXX .................XXXXXX............       ...               XXX .................XXXXXX............       ...   ",
"     ......XXXXX.............XXXXXXXXXXXXX....           .....       ......XXXXX.............XXXXXXXXXXXXX....           .....  ",
"  .....XX..XXXXXX..............XXXX...XXXXX...................    .....XX..XXXXXX..............XXXX...XXXXX...................  ",
".....XXXXXXXXXXXX................X.....XXXXX.........................XXXXXXXXXXXX................X.....XXXXX....................",
"....XXXXXXXX   XXXXXX...............................................XXXXXXXX   XXXXXX...........................................",
"...             XXXXXXXXXX   ......................................             XXXXXXXXXX   ...................................",
"..     ..                         ................................     ..                         ..............................",
"     .....                                 ....................      .....                                 .................... ",
".............                          ......................................                          .........................",
"..............   ....            .............................................   ....            ...............................",
"ooo......XXX..  ...... ...  .........................ooooo....ooooo......XXX..  ...... ...  .........................ooooo....oo",
"oooo....XXXXX.  ...................................oooooooo..ooooooo....XXXXX.  ...................................oooooooo..ooo",
"XXXoo..XXXXXXXX  .............XXXXX...............oooXXXoooooooXXXXoo..XXXXXXXX  .............XXXXX...............oooXXXoooooooX",
"XXXXXo.XXXXXXXXX.........XXXXXXXXXX.....ooooo..oooooXXXXXXooooXXXXXXXo.XXXXXXXXX.........XXXXXXXXXX.....ooooo..oooooXXXXXXooooXX",
"XXXXXXXXXXXXXXXX......XXXXXXXXXXXX.....oooooooooooooXXXXXXXXoXXXXXXXXXXXXXXXXXXX......XXXXXXXXXXXX.....oooooooooooooXXXXXXXXoXXX",
"XXXXXXXXXXXXXXXXXX....XXXXXXXXXX...oo.oooXXoooooXXoooXXXXXXXXXXXXXXXXXXXXXXXXXXXXX....XXXXXXXXXX...oo.oooXXoooooXXoooXXXXXXXXXXX",
"XXXXXXXXXXXXXXXXXX................ooooooXXXXoooXXXXXoXXXXXXXXXXXXXXXXXXXXXXXXXXXXX................ooooooXXXXoooXXXXXoXXXXXXXXXXX",
"X....XXXXX  XXXXXXXXX.............ooXXooXXXXXXXXXXXXXXXXXXXXXXXXX....XXXXX  XXXXXXXXX.............ooXXooXXXXXXXXXXXXXXXXXXXXXXXX",
"......XXX    XXXXXXXXX........XXoooXXXXXXXXXXXXXXXXXXXXX    XXXX......XXX    XXXXXXXXX........XXoooXXXXXXXXXXXXXXXXXXXXX    XXXX",
".......      XXXXXX.........XXXXXXXXXXXX...XXXXX....XXX      ..X.......      XXXXXX.........XXXXXXXXXXXX...XXXXX....XXX      ..X",
"....         .............XXXXXXXXXXXXX.....XXX...           .......         .............XXXXXXXXXXXXX.....XXX...           ...",
"...           ...........XXX...XXXXXX.......XXX..           .......           ...........XXX...XXXXXX.......XXX..           ....",
"..      ..     ........XXXX.....XXX...........X..               ..      ..     ........XXXX.....XXX...........X..               ",
"       .....     ..............................                        .....     ..............................                 ",
"       ..................................          ...                 ..................................          ...          ",
"   ..  ..................   ................      .....  ...       ..  ..................   ................      .....  ...    ",
"  ....  ................     ..................   ..... ......    ....  ................     ..................   ..... ......  ",
".................   ...      ............XX......................................   ...      ............XX.....................",
"................             ...........XXXX....XXXX............................             ...........XXXX....XXXX............",
"  .............                 ......XXXXXXXXXXXXXXXX........    .............                 ......XXXXXXXXXXXXXXXX........  ",
"    ..    ....                       XXXXXXXXXXXXXX    ..           ..    ....                       XXXXXXXXXXXXXX    ..       ",
"                                   .....XXXXXXXXXX                                                 .....XXXXXXXXXX              ",
"           oooo                 .........XXXXXX.   ...                     oooo                 .........XXXXXX.   ...          ",
"          oooooo........oooo   ......XXXXXXXXX............                oooooo........oooo   ......XXXXXXXXX............      ",
"      ooo ooooooooooo..ooooooo ....XXXXXXXXXXX.......                 ooo ooooooooooo..ooooooo ....XXXXXXXXXXX.......           ",
"     oooooooooooooooooooXXXoooo...XXXXXXXXXXX..........              oooooooooooooooooooXXXoooo...XXXXXXXXXXX..........         ",
"    oooooXXXXooooXXXXooXXXXXooooXXX.....XXXXX............           oooooXXXXooooXXXXooXXXXXooooXXX.....XXXXX............       ",
"    oooXXXXXXXooXXXXXXXXXXXXXXXXX........XXXXX.XX............       oooXXXXXXXooXXXXXXXXXXXXXXXXX........XXXXX.XX............   ",
"  ooooXXXXXXXXoXXXXXXXXXXXXXXXXXX..........XXXXXXX...........     ooooXXXXXXXXoXXXXXXXXXXXXXXXXXX..........XXXXXXX...........   ",
"XXXXoXXXXXXXXXXXXXXXXXXXXXXXXXXXX.XXX.......XXX...X...........XXXXXXoXXXXXXXXXXXXXXXXXXXXXXXXXXXX.XXX.......XXX...X...........XX",
".XXXXXXXXXXXXXXXXXXXXXXXXXXXXXXXXXXXXX.......................XX..XXXXXXXXXXXXXXXXXXXXXXXXXXXXXXXXXXXXX.......................XX.",
"..XXXXXXXX...XXXXX..XXXX..XXXXXXXXXXXX...XX..................X....XXXXXXXX...XXXXX..XXXX..XXXXXXXXXXXX...XX..................X..",
"......XXX.....XX......X....XXXXXXXXXXX..XXXXX.........................XXX.....XX......X....XXXXXXXXXXX..XXXXX...................",
".......XX.....X............XXXXXXXXXXXXXXXXXXXXXXXXXXX.................XX.....X............XXXXXXXXXXXXXXXXXXXXXXXXXXX..........",
"..............X............XXXXX...XXXXXXXXX..................................X............XXXXX...XXXXXXXXX....................",
"...............................................      ..........................................................      ...........",
".XXX.........................................         .    ......XXX.........................................         .    .....",
"XXXXX..........   .........................                 ...XXXXXX..........   .........................                 ...X",
"XXXXXXXXX   ..     .......................                  XXXXXXXXXXXXX   ..     .......................                  XXXX",
"XXXXXXXX       ..   ......   ...........      .....            XXXXXXXXX       ..   ......   ...........      .....            X",
" XXX     ..   ....   ....     ...  ...       .......   ...       XXX     ..   ....   ....     ...  ...       .......   ...      ",
"........................            ................  ..................................            ................  ..........",
".........  .....    ....               ..................................  .....    ....               .........................",
"...ooo.     .        ..    ...     .......................oooooo...ooo.     .        ..    ...     .......................oooooo",
"o.ooooo                   .................ooooo..ooo...XXXXooooo.ooooo                   .................ooooo..ooo...XXXXoooo",
"ooooXXoo                  ................oooooooooooo.XXXXXXXooooooXXoo                  ................oooooooooooo.XXXXXXXoo",
"oooXXXXooXX   ..  ...    ...............oooXXXXoooXXooXXXXXXXXXooooXXXXooXX   ..  ...    ...............oooXXXXoooXXooXXXXXXXXXo",
"ooXXXXXXXXXX  ........          .....ooooXXXXXXXXXXXXXXXXXXXXXXXooXXXXXXXXXX  ........          .....ooooXXXXXXXXXXXXXXXXXXXXXXX",
"XoXX..XXXXXXXX........             XooXXXXXXXXXXXXXXXXXXXX   XXXXoXX..XXXXXXXX........             XooXXXXXXXXXXXXXXXXXXXX   XXX",
"XXX....XXXXXXXXX......     XXXXXXXXXXXXXXXXXX   XXXXXXXXX     XXXXX....XXXXXXXXX......     XXXXXXXXXXXXXXXXXX   XXXXXXXXX     XX",
" ...........XXX......  XXXXXXXXXXXX......XX       XX             ...........XXX......  XXXXXXXXXXXX......XX       XX            ",
"    ...........................................                     ...........................................                 ",
"       ...      ...................................                    ...      ...................................             ",
"                ..................XXXX.................                         ..................XXXX.................         ",
"            XXX .................XXXXXX............       ...               XXX .................XXXXXX............       ...   ",
"     ......XXXXX.............XXXXXXXXXXXXX....           .....       ......XXXXX.............XXXXXXXXXXXXX....           .....  ",
"  .....XX..XXXXXX..............XXXX...XXXXX...................    .....XX..XXXXXX..............XXXX...XXXXX...................  ",
".....XXXXXXXXXXXX................X.....XXXXX.........................XXXXXXXXXXXX................X.....XXXXX....................",
"....XXXXXXXX   XXXXXX...............................................XXXXXXXX   XXXXXX...........................................",
"...             XXXXXXXXXX   ......................................             XXXXXXXXXX   ...................................",
"..     ..                         ................................     ..                         ..............................",
"     .....                                 ....................      .....                                 .................... ",
".............                          ......................................                          .........................",
"..............   ....            .............................................   ....            ...............................",
"ooo......XXX..  ...... ...  .........................ooooo....ooooo......XXX..  ...... ...  .........................ooooo....oo",
"oooo....XXXXX.  ...................................oooooooo..ooooooo....XXXXX.  ...................................oooooooo..ooo",
"XXXoo..XXXXXXXX  .............XXXXX...............oooXXXoooooooXXXXoo..XXXXXXXX  .............XXXXX...............oooXXXoooooooX",
"XXXXXo.XXXXXXXXX.........XXXXXXXXXX.....ooooo..oooooXXXXXXooooXXXXXXXo.XXXXXXXXX.........XXXXXXXXXX.....ooooo..oooooXXXXXXooooXX",
"XXXXXXXXXXXXXXXX......XXXXXXXXXXXX.....oooooooooooooXXXXXXXXoXXXXXXXXXXXXXXXXXXX......XXXXXXXXXXXX.....oooooooooooooXXXXXXXXoXXX",
"XXXXXXXXXXXXXXXXXX....XXXXXXXXXX...oo.oooXXoooooXXoooXXXXXXXXXXXXXXXXXXXXXXXXXXXXX....XXXXXXXXXX...oo.oooXXoooooXXoooXXXXXXXXXXX",
"XXXXXXXXXXXXXXXXXX................ooooooXXXXoooXXXXXoXXXXXXXXXXXXXXXXXXXXXXXXXXXXX................ooooooXXXXoooXXXXXoXXXXXXXXXXX",
"X....XXXXX  XXXXXXXXX.............ooXXooXXXXXXXXXXXXXXXXXXXXXXXXX....XXXXX  XXXXXXXXX.............ooXXooXXXXXXXXXXXXXXXXXXXXXXXX",
"......XXX    XXXXXXXXX........XXoooXXXXXXXXXXXXXXXXXXXXX    XXXX......XXX    XXXXXXXXX........XXoooXXXXXXXXXXXXXXXXXXXXX    XXXX",
".......      XXXXXX.........XXXXXXXXXXXX...XXXXX....XXX      ..X.......      XXXXXX.........XXXXXXXXXXXX...XXXXX....XXX      ..X",
"....         .............XXXXXXXXXXXXX.....XXX...           .......         .............XXXXXXXXXXXXX.....XXX...           ...",
"...           ...........XXX...XXXXXX.......XXX..           .......           ...........XXX...XXXXXX.......XXX..           ....",
"..      ..     ........XXXX.....XXX...........X..               ..      ..     ........XXXX.....XXX...........X..               ",
"       .....     ..............................                        .....     ..............................                 ",
"       ..................................          ...                 ..................................          ...          ",
"   ..  ..................   ................      .....  ...       ..  ..................   ................      .....  ...    ",
"  ....  ................     ..................   ..... ......    ....  ................     ..................   ..... ......  ",
".................   ...      ............XX......................................   ...      ............XX.....................",
"................             ...........XXXX....XXXX............................             ...........XXXX....XXXX............",
"  .............                 ......XXXXXXXXXXXXXXXX........    .............                 ......XXXXXXXXXXXXXXXX........  ",
"    ..    ....                       XXXXXXXXXXXXXX    ..           ..    ....                       XXXXXXXXXXXXXX    ..       ",
"                                   .....XXXXXXXXXX                                                 .....XXXXXXXXXX              ",
"           oooo                 .........XXXXXX.   ...                     oooo                 .........XXXXXX.   ...          ",
"          oooooo........oooo   ......XXXXXXXXX............                oooooo........oooo   ......XXXXXXXXX............      ",
"      ooo ooooooooooo..ooooooo ....XXXXXXXXXXX.......                 ooo ooooooooooo..ooooooo ....XXXXXXXXXXX.......           ",
"     oooooooooooooooooooXXXoooo...XXXXXXXXXXX..........              oooooooooooooooooooXXXoooo...XXXXXXXXXXX..........         ",
"    oooooXXXXooooXXXXooXXXXXooooXXX.....XXXXX............           oooooXXXXooooXXXXooXXXXXooooXXX.....XXXXX............       ",
"    oooXXXXXXXooXXXXXXXXXXXXXXXXX........XXXXX.XX............       oooXXXXXXXooXXXXXXXXXXXXXXXXX........XXXXX.XX............   ",
"  ooooXXXXXXXXoXXXXXXXXXXXXXXXXXX..........XXXXXXX...........     ooooXXXXXXXXoXXXXXXXXXXXXXXXXXX..........XXXXXXX...........   ",
"XXXXoXXXXXXXXXXXXXXXXXXXXXXXXXXXX.XXX.......XXX...X...........XXXXXXoXXXXXXXXXXXXXXXXXXXXXXXXXXXX.XXX.......XXX...X...........XX",
".XXXXXXXXXXXXXXXXXXXXXXXXXXXXXXXXXXXXX.......................XX..XXXXXXXXXXXXXXXXXXXXXXXXXXXXXXXXXXXXX.......................XX.",
"..XXXXXXXX...XXXXX..XXXX..XXXXXXXXXXXX...XX..................X....XXXXXXXX...XXXXX..XXXX..XXXXXXXXXXXX...XX..................X..",
"......XXX.....XX......X....XXXXXXXXXXX..XXXXX.........................XXX.....XX......X....XXXXXXXXXXX..XXXXX...................",
".......XX.....X............XXXXXXXXXXXXXXXXXXXXXXXXXXX.................XX.....X............XXXXXXXXXXXXXXXXXXXXXXXXXXX..........",
"..............X............XXXXX...XXXXXXXXX..................................X............XXXXX...XXXXXXXXX....................",
"...............................................      ..........................................................      ...........",
".XXX.........................................         .    ......XXX.........................................         .    .....",
"XXXXX..........   .........................                 ...XXXXXX..........   .........................                 ...X",
"XXXXXXXXX   ..     .......................                  XXXXXXXXXXXXX   ..     .......................                  XXXX",
"XXXXXXXX       ..   ......   ...........      .....            XXXXXXXXX       ..   ......   ...........      .....            X",
" XXX     ..   ....   ....     ...  ...       .......   ...       XXX     ..   ....   ....     ...  ...       .......   ...      ",
"........................            ................  ..................................            ................  ..........",
".........  .....    ....               ..................................  .....    ....               .........................",
"...ooo.     .        ..    ...     .......................oooooo...ooo.     .        ..    ...     .......................oooooo",
"o.ooooo                   .................ooooo..ooo...XXXXooooo.ooooo                   .................ooooo..ooo...XXXXoooo",
"ooooXXoo                  ................oooooooooooo.XXXXXXXooooooXXoo                  ................oooooooooooo.XXXXXXXoo",
"oooXXXXooXX   ..  ...    ...............oooXXXXoooXXooXXXXXXXXXooooXXXXooXX   ..  ...    ...............oooXXXXoooXXooXXXXXXXXXo",
"ooXXXXXXXXXX  ........          .....ooooXXXXXXXXXXXXXXXXXXXXXXXooXXXXXXXXXX  ........          .....ooooXXXXXXXXXXXXXXXXXXXXXXX",
"XoXX..XXXXXXXX........             XooXXXXXXXXXXXXXXXXXXXX   XXXXoXX..XXXXXXXX........             XooXXXXXXXXXXXXXXXXXXXX   XXX",
"XXX....XXXXXXXXX......     XXXXXXXXXXXXXXXXXX   XXXXXXXXX     XXXXX....XXXXXXXXX......     XXXXXXXXXXXXXXXXXX   XXXXXXXXX     XX",
" ...........XXX......  XXXXXXXXXXXX......XX       XX             ...........XXX......  XXXXXXXXXXXX......XX       XX            "
};
