/* XPM */
static char *_48b7a727dc746e7eee4c37849c5defawlPPNpRQbbo8yJ8Q[] = {
/* columns rows colors chars-per-pixel */
"18 18 3 1 ",
"  c #C0D470",
". c #D2E077",
"X c white",
/* pixels */
"                  ",
"                  ",
"                  ",
"                  ",
"                  ",
"       .....      ",
"      ........    ",
"      .........   ",
"      .........   ",
"       .......    ",
"                  ",
"    ....          ",
"   ......         ",
"   ......         ",
"    ....          ",
"                  ",
"                  ",
"                  "
};
