/* XPM */
static char *_fe0a8bd7b054b36cef5bd0f0ba5872eFOOz6T7tipxrjg4c[] = {
/* columns rows colors chars-per-pixel */
"18 18 9 1 ",
"  c None",
". c #78A158",
"X c #A4C263",
"o c #C0D470",
"O c #90625D",
"+ c #AA7959",
"@ c #B68962",
"# c #C49A6C",
"$ c white",
/* pixels */
"                  ",
"                  ",
"      ......      ",
"    ..XXoXXX..    ",
"   .XXXooooXXX.   ",
"   .XXoooooooX.   ",
"   .XooooooooX.   ",
"   .XooooooooX.   ",
"   .XXoooooXXX.   ",
"   .XXXoXXXXXX.   ",
"    ..XXXXXX..    ",
"    O+......+O    ",
"    O@++++++@O    ",
"    O#@@@@@@@O    ",
"    O#####@##O    ",
"    O#####@##O    ",
"     @####@#@     ",
"      @@@@@@      "
};
